<svg id="Capa_1" enable-background="new 0 0 512 512" height="512" viewBox="0 0 512 512" width="512" xmlns="http://www.w3.org/2000/svg"><g><path d="m416.909 190.79-140.633 104.669-20.276 173.31c26.593 19.275 59.261 30.659 94.543 30.659 89.027 0 161.457-72.43 161.457-161.457 0-65.387-39.07-121.82-95.091-147.181z" fill="#61729b"/><path d="m227.512 306.823-131.815-116.298c-56.343 25.228-95.697 81.825-95.697 147.446 0 89.027 72.43 161.457 161.458 161.457 35.281 0 67.949-11.384 94.542-30.659z" fill="#00cc76"/><path d="m256 267.172c26.593-19.276 160.909-76.382 160.909-76.382.571-5.51.867-11.101.867-16.76 0-89.028-72.43-161.458-161.457-161.458-89.028 0-161.458 72.43-161.458 161.458 0 5.568.283 11.071.836 16.495 0 0 133.71 57.372 160.303 76.647z" fill="#f69"/><path d="m256.318 12.572c-.106 0-.212.004-.318.004v194.603l10 59.993 150.909-76.382c.571-5.51.867-11.101.867-16.76-.001-89.029-72.43-161.458-161.458-161.458z" fill="#e62e6b"/><path d="m256 207.172-58.176 47.099-7.872 66.94 66.453 32.691 65.674-32.426-7.823-67.101z" fill="#d9f2ff"/><path d="m256 207.172v128.314l10 18.216 56.079-32.226-7.823-67.101z" fill="#c4e1ff"/><path d="m256 207.172c36.314 26.322 61.294 67.367 66.079 114.304 51.484-23.052 88.78-72.297 94.83-130.686-20.255-9.169-42.725-14.277-66.366-14.277-35.282 0-67.95 11.384-94.543 30.659z" fill="#29376d"/><path d="m189.952 321.211c4.852-46.826 29.803-87.767 66.048-114.039-26.593-19.276-59.261-30.659-94.542-30.659-23.407 0-45.664 5.013-65.761 14.012 5.94 58.277 43.004 107.485 94.255 130.686z" fill="#fed843"/><path d="m322.915 337.971c0-5.568-.283-11.071-.836-16.495-20.097 8.999-42.354 14.011-65.76 14.011-23.641 0-46.112-5.108-66.367-14.277-.571 5.51-.867 11.101-.867 16.76 0 53.746 26.404 101.435 66.915 130.798 40.511-29.362 66.915-77.051 66.915-130.797z" fill="#7ed8f6"/><path d="m256.318 335.488c-.106 0-.212-.004-.318-.004v133.286c40.511-29.364 66.915-77.052 66.915-130.798 0-5.568-.283-11.071-.836-16.495-20.098 8.998-42.354 14.011-65.761 14.011z" fill="#66c0ee"/></g></svg>